<?xml version="1.0" encoding="utf-8"?>
<!-- Generator: Adobe Illustrator 24.1.2, SVG Export Plug-In . SVG Version: 6.00 Build 0)  -->
<svg version="1.1" id="Слой_1" xmlns="http://www.w3.org/2000/svg" xmlns:xlink="http://www.w3.org/1999/xlink" x="0px" y="0px"
	 viewBox="0 0 512 244" style="enable-background:new 0 0 512 244;" xml:space="preserve">
<style type="text/css">
	.st0{fill:url(#SVGID_1_);}
</style>
<linearGradient id="SVGID_1_" gradientUnits="userSpaceOnUse" x1="254.7336" y1="5.9533" x2="260.3812" y2="447.6518">
	<stop  offset="0.3766" style="stop-color:#CB2240"/>
	<stop  offset="0.6873" style="stop-color:#681121"/>
	<stop  offset="1" style="stop-color:#000000"/>
</linearGradient>
<path class="st0" d="M221.5,183h-14.4c-0.5,0-0.9-0.6-0.9-1.1c0-0.2,7.7-24.9,7.7-24.9c0.3-0.9,0.3-0.9,0.4-0.9l0,0
	c0.1,0,0.1,0,0.4,0.9c0,0,7.7,24.7,7.7,24.9C222.4,182.4,222,183,221.5,183 M240.9,126.5c-0.1-0.5-0.6-0.9-1.1-0.9H187
	c-0.5,0-1,0.4-1.1,0.9c0,0-29.2,96.4-29.2,96.6c0,0.5,0.4,0.9,0.9,0.9h34.9c0.3-0.1,0.5-0.4,0.5-0.7l4.1-13c0.1-0.3,0.4-0.5,0.8-0.6
	h32.2c0.4,0,0.7,0.3,0.8,0.6l4.2,13c0.1,0.3,0.3,0.6,0.5,0.7H270c0.5,0,0.9-0.4,0.9-0.8C270.8,223,240.9,126.5,240.9,126.5
	 M340.5,165.9H319c0,0-0.6-0.2-0.6-0.8v-10.8c0-0.6,0.6-0.8,0.6-0.8h19.7c2.3,0,6.9,1.1,6.9,6.4S340.5,165.9,340.5,165.9
	 M443.4,157.5H492v-31.9h-62.5c-5.8,0-14.1,3-18.8,6.5c-4.7,3.5-11.5,11.5-11.5,22.4s6.7,19.5,6.7,19.5c3.4,4.2,12,13.1,12,13.1
	c0.2,0.2,0.3,0.5,0.3,0.8c0,0.7-0.5,1.2-1.2,1.2h-48.2c-5.9,0-6.3-2.4-6.3-2.7c0-0.6,0.7-1,0.7-1c2.2-1.1,6.7-4.6,6.7-4.6
	c9.5-7.4,10.7-17.6,10.7-23c0-5.5-0.8-15.1-10.6-23.6c-9.8-8.5-22.1-8.7-22.1-8.7h-68.7v97.8c0,0.3,0.3,0.6,0.6,0.6H318v-27.4
	c0-0.5,0.7,0,0.7,0l19.9,20c7.1,7.2,18.8,7.4,18.8,7.4h75.3c12.9,0,20-7,22-8.9c2-2,8.5-9.3,8.5-21.4c0-12.1-5.5-18.3-7.9-21.2
	c-2.1-2.5-10.5-11.4-12.3-13.3c-0.2-0.2-0.3-0.4-0.3-0.7C442.8,158,443,157.6,443.4,157.5 M139.2,224c0.3,0,0.4-0.2,0.5-0.5
	c0,0,29.6-97.2,29.6-97.3c0-0.3-0.2-0.5-0.4-0.6h-36.5c-0.2,0-0.3,0.1-0.3,0.3l-7.6,25.3c-0.1,0.2-0.2,0.3-0.3,0.3s-0.3-0.2-0.4-0.3
	l-7.9-25.3c0-0.2-0.2-0.3-0.3-0.3H75.3c-0.1,0-0.2,0.1-0.3,0.2l-7,25.5c0,0.2-0.2,0.4-0.4,0.4c-0.2,0-0.3-0.1-0.3-0.3L59.8,126
	c0-0.2-0.1-0.3-0.3-0.3H20.6c-0.3,0-0.6,0.3-0.6,0.6c0,0.1,0,0.2,0,0.2l30,97.1c0.1,0.3,0.3,0.5,0.5,0.5h32.3c0.2,0,0.4-0.2,0.4-0.5
	l11.2-36.1c0.1-0.2,0.2-0.4,0.3-0.4c0.2,0,0.3,0.2,0.4,0.3l11,36.3c0.1,0.2,0.2,0.3,0.4,0.3L139.2,224 M111.1,20
	c-5.9,0-14.1,3-18.8,6.5C87.6,30,80.8,38,80.8,49s6.7,19.5,6.7,19.5c3.4,4.2,12,13.1,12,13.1c0.2,0.2,0.3,0.5,0.3,0.8
	c0,0.7-0.5,1.2-1.2,1.2H20v34.8h94.5c12.8,0,20-7,22-9c1.9-1.9,8.4-9.3,8.4-21.4s-5.5-18.4-7.9-21.2c-2.1-2.5-10.5-11.4-12.3-13.2
	c-0.2-0.2-0.3-0.4-0.3-0.7c0-0.4,0.2-0.8,0.6-0.9h45.5v66.5h35V52.1H248V20H111.1z M416.2,60.3h-21.5c0,0-0.6-0.2-0.6-0.8V48.7
	c0-0.7,0.6-0.8,0.6-0.8h19.7c2.3,0,6.9,1.1,6.9,6.4S416.2,60.3,416.2,60.3 M444.5,83.5c-5.9,0-6.3-2.4-6.3-2.7c0-0.6,0.7-1,0.7-1
	c2.2-1.1,6.7-4.6,6.7-4.6c9.5-7.4,10.7-17.6,10.7-23c0-5.5-0.8-15.1-10.6-23.6c-9.8-8.5-22.1-8.7-22.1-8.7h-68.7v97.8
	c0,0.3,0.3,0.6,0.6,0.6h38.3V90.9c0-0.5,0.7,0,0.7,0l19.9,20c7.1,7.2,18.8,7.4,18.8,7.4H492V83.5H444.5L444.5,83.5z M299.1,77.4
	h-14.4c-0.5,0-0.9-0.6-0.9-1.1c0-0.2,7.7-24.9,7.7-24.9c0.3-0.9,0.4-1,0.4-1l0,0c0.1,0,0.1,0,0.4,1c0,0,7.7,24.7,7.7,24.9
	C299.9,76.8,299.6,77.4,299.1,77.4 M318.4,20.9c-0.1-0.5-0.6-0.9-1.1-0.9h-52.8c-0.5,0-1,0.4-1.1,0.9c0,0-29.2,96.4-29.2,96.6
	c0,0.5,0.4,0.9,0.9,0.9H270c0.3-0.1,0.5-0.4,0.6-0.7l4.1-13c0.1-0.3,0.4-0.5,0.8-0.5h32.2c0.4,0,0.7,0.2,0.8,0.6l4.2,13
	c0.1,0.3,0.3,0.6,0.5,0.7h34.4c0.5,0,0.9-0.4,0.9-0.9C348.4,117.3,318.4,20.9,318.4,20.9"/>
</svg>
