<svg xmlns="http://www.w3.org/2000/svg" xmlns:xlink="http://www.w3.org/1999/xlink" viewBox="0 0 2426.49 249.12"><defs><style>.cls-1{fill-rule:evenodd;fill:url(#Безымянный_градиент_3);}</style><linearGradient id="Безымянный_градиент_3" x1="1213.68" y1="21.15" x2="1212.35" y2="333.66" gradientUnits="userSpaceOnUse"><stop offset="0" stop-color="#cc3542"/><stop offset="1" stop-color="#43212c"/></linearGradient></defs><g id="Слой_2" data-name="Слой 2"><g id="Слой_1-2" data-name="Слой 1"><path class="cls-1" d="M540.14,248.81,621.3,0H743.89l82.56,248.81H733.09L717.57,204H644.22l-15.58,44.82ZM682.86,55.11l-35.42,98.58h68Zm895.7,193.81L1659.73.1h122.58l82.57,248.82h-93.37L1756,204.09h-73.36l-15.58,44.83ZM1721.28,55.21l-35.41,98.59h68Zm-873.5,193.6V0h176.48c19.92,0,36.14,7.11,48.9,15.82s23.65,19.91,28,35.18c6.19,21.64,4.81,39.06.7,51a63.93,63.93,0,0,1-21.53,30c-10.23,8-18.76,14.35-37.9,18.94,7.38,7.51,7.32,7.81,16,14,11.86,8.39,22.81,9.59,63.4,9.75l69.81,0v74.12l-70.29.18c-76.49.2-103.42-.4-118.07-13.55-18.43-16.52-38.47-35.89-66.32-68.8v82.17ZM937,62v45.88h62.19c3.32,0,6.95-1.23,10.8-3.71s6-8.7,6.19-18.7c-.58-9.53-2.92-15.82-6.94-18.88S1001.77,62,999.09,62ZM2426.49.1H2244.4q-47.15,0-56.08,46.18T2239,147.56q36.08,28.69-12.33,27.23h-42.33v-.1l-22.44,0c-40.61-.16-51.56-1.34-63.41-9.75-8.72-6.19-8.66-6.47-16-14,19.13-4.59,27.66-10.91,37.9-18.94a63.86,63.86,0,0,0,21.53-30c4.09-11.93,5.47-29.35-.72-51-4.35-15.27-15.28-26.49-28-35.18S2084.19,0,2064.27,0H1887.79V248.81H1977V166.64c27.83,32.91,47.87,52.28,66.31,68.8,14.64,13.15,41.57,14.15,118.08,13.55l13.27-.1v0H2306q53.26-9,54.38-55.18c.64-30.76-17.14-62.85-54.38-95.1-20.34-17.62-16.29-24.48,13-24.48h107.53V.1ZM1977,62v45.88h62.19q5,0,10.79-3.71c3.85-2.46,6-8.7,6.18-18.7-.58-9.53-2.91-15.82-6.93-18.88S2041.79,62,2039.11,62ZM196,0q-47.17,0-56.07,46.17c-5.9,30.77,10,65.64,50.64,101.28,23.1,20.26,19.89,27.24-12.31,27.24H0v74.12H257.57c36,0,53.72-24.37,54.38-55.17s-17.45-62.46-54.38-95.11q-31-25.86,13-24.46H381.1V248.83h80.29V74.06H573.47V0ZM1373.45,0l-22.09,73.93L1326.86,0h-92.09l81.17,248.81h79.52l27.23-83.12,27.21,83.12h79.52L1610.59,0H1518.5L1494,73.93,1471.91,0Z"/></g></g></svg>