<?xml version="1.0" encoding="utf-8"?>
<!-- Generator: Adobe Illustrator 24.1.2, SVG Export Plug-In . SVG Version: 6.00 Build 0)  -->
<svg version="1.1" id="Capa_1" xmlns="http://www.w3.org/2000/svg" xmlns:xlink="http://www.w3.org/1999/xlink" x="0px" y="0px"
	 viewBox="0 0 512 512" style="enable-background:new 0 0 512 512;" xml:space="preserve">
<style type="text/css">
	.st0{fill:#00C2FF;}
</style>
<g>
	<g>
		<path class="st0" d="M443.6,98.9L262.5,2.3c-5.7-3.1-12.6-3-18.3,0.1L68.2,99c-6.1,3.4-10,9.8-10,16.8v136.3
			c0,107.8,63.8,205.2,162.8,248.1l24.3,10.2c2.4,1,4.9,1.5,7.4,1.5c2.5,0,4.9-0.5,7.3-1.4l28.2-11.5c0,0,0.1,0,0.1-0.1
			c101.2-42.3,166.1-140,165.4-248.8V115.8C453.8,108.8,449.9,102.2,443.6,98.9z M415.4,250.4c0.6,93.3-55,176.9-141.7,213.2
			l-20.7,8.5l-16.8-7.1C151.4,428.2,96.6,344.7,96.6,252.2v-125L253.6,41l161.8,86.3V250.4z"/>
	</g>
</g>
</svg>
