<svg xmlns="http://www.w3.org/2000/svg" viewBox="0 0 381.49 748.25"><defs><style>.cls-1{fill:#fff;}</style></defs><g id="Слой_2" data-name="Слой 2"><g id="Слой_2-2" data-name="Слой 2"><path class="cls-1" d="M135.47,0l29.2,30.79c-4.38,30.9-6.89,58-8.37,80.32-1.54,23.12-2,40.51,5.25,60.94a117,117,0,0,0,10.91,22.71l-55.62,60.91L15.63,261.48c40.85-30.64,63.87-64,75.9-84.65,26.24-45.07,33.6-87.18,38.48-116.62A410.66,410.66,0,0,0,135.47,0Z"/><path class="cls-1" d="M0,288.92q34.26,4.79,71.22,8.36,26.3,2.5,51.38,4.06a159.57,159.57,0,0,0,51.86,126.43A532.8,532.8,0,0,0,158,502.09c-4.33,29.29-5.58,54.64-5.5,100.61.08,37.88,1.05,87.2,4.54,145.55q-16.24-20.57-32.5-41.11c-.24-24.9-1.08-60.29-3.82-102.76-3.52-54.54-5.28-81.81-12.19-116.63,0,0-14.77-74.35-49-135.21C51.15,337.61,42,324.5,29.27,312A167.55,167.55,0,0,0,0,288.92Z"/><path class="cls-1" d="M82.21,278.64c.72,0,39.2-7.41,39.2-7.41v14.82Z"/><circle class="cls-1" cx="191.07" cy="278.76" r="56.52"/><path class="cls-1" d="M248,0l-29.2,30.79c4.38,30.9,6.89,58,8.37,80.32,1.54,23.12,1.95,40.51-5.25,60.94A117,117,0,0,1,211,194.76l55.62,60.91,101.21,5.81c-40.85-30.64-63.87-64-75.9-84.65-26.24-45.07-33.6-87.18-38.48-116.62A412.06,412.06,0,0,1,248,0Z"/><path class="cls-1" d="M299.38,278.76c-.72,0-39.19-7.41-39.19-7.41v14.82Z"/><path class="cls-1" d="M381.49,288.92q-34.26,4.79-71.21,8.36-26.31,2.5-51.39,4.06A159.57,159.57,0,0,1,207,427.77a532.8,532.8,0,0,1,16.49,74.32c4.34,29.29,5.59,54.64,5.5,100.61-.07,37.88-1.05,87.2-4.54,145.55q16.25-20.57,32.5-41.11c.24-24.9,1.09-60.29,3.83-102.76,3.51-54.54,5.27-81.81,12.18-116.63,0,0,14.77-74.35,49-135.21,8.39-14.93,17.59-28,30.27-40.56A168.3,168.3,0,0,1,381.49,288.92Z"/></g></g></svg>