<svg xmlns="http://www.w3.org/2000/svg" viewBox="0 0 593.95 639.91"><defs><style>.cls-1,.cls-2{fill:#fff;}.cls-2{stroke:#fff;stroke-miterlimit:10;}</style></defs><g id="Слой_2" data-name="Слой 2"><g id="Слой_3" data-name="Слой 3"><path class="cls-1" d="M211.7,481.47a79.33,79.33,0,0,1-8.94,4.47,82.25,82.25,0,0,1-12.29,4.1,122.88,122.88,0,0,1-27.19,3.35,137.43,137.43,0,0,1-88.82-30.73,143.38,143.38,0,0,1-23.84-21.6,141.86,141.86,0,0,1-12.1-15.83A235,235,0,0,1,9.28,361.36,216.69,216.69,0,0,1,.34,303.45,175.1,175.1,0,0,1,7.05,243.3C9,235,11.4,226.14,14.49,216.85A293.38,293.38,0,0,1,32.18,175Q29.59,193.67,27,212.39A203.49,203.49,0,0,0,29.58,271a193.93,193.93,0,0,0,14.71,53.08,121.14,121.14,0,0,0,17.32,31.47c2.21,2.9,4.46,5.56,6.7,8a178.86,178.86,0,0,0,18.62,20.12c6.06,5.6,17.77,16.3,34.45,25a158.14,158.14,0,0,0,30,11.59,129.63,129.63,0,0,0,19.15,4.05,49.65,49.65,0,0,1,22.76,13.6,72,72,0,0,1,18.44,43.57Z"/><path class="cls-2" d="M204.92,25.31A239.85,239.85,0,0,0,88.59,105,217.16,217.16,0,0,0,50.26,230.84,199.69,199.69,0,0,0,81.12,343.11a157.2,157.2,0,0,0,68.52,62.07,141.23,141.23,0,0,0,50.87,11.19l.17-102.62a45.92,45.92,0,0,0-11.7-22.6c-14.56-15.69-39.15-34.65-57.29-57.55-3.39-4.28-6-7.93-7.51-10.24a141.92,141.92,0,0,1-8.66-18.45,106.28,106.28,0,0,1-8-41.89,136.75,136.75,0,0,1,1.37-20.26A157.28,157.28,0,0,1,127.36,92.9C151.73,50.91,189.21,32.09,204.92,25.31Z"/><path class="cls-1" d="M21,437.45c3.59,3.7,8.64,8.81,14.79,14.79,5.53,5.38,8.77,8.52,13.27,12.58,5.34,4.82,18.35,16.63,29.3,23.36,3.83,2.35,6.82,4,8.85,5.11,9,4.9,15.82,8.58,24.62,10.85,6,1.54,10.67,1.78,20,2.25a200.57,200.57,0,0,0,20.64-.15c8.3-.4,12.46-.59,18.09-1.47,8.72-1.37,13.61-2.51,23.77-3.74a28.92,28.92,0,0,1,6.91,0,31,31,0,0,1,16.59,7.74l3.31,3.74a72.43,72.43,0,0,1,10.79,15.2c4,7.55,4.75,12.42,9.81,20.46a70.43,70.43,0,0,0,7.19,9.53A144.94,144.94,0,0,0,267,503c1.78-7.61,3.42-15.64,4.84-24.05a400.37,400.37,0,0,0,5-44l2.76-42.71-.27-64.69c-.05-3.63-.15-8.93-.42-15.34-.15-3.6-.34-8.22-.63-11.62-.75-8.75-2.67-15.15-5.31-24.32-2.79-9.69-5.36-18.69-11.34-29.58a112,112,0,0,0-9.26-14.23c-4-5.23-8-10.51-14.1-15.21a56,56,0,0,0-24.6-10.64A154.48,154.48,0,0,1,224,165a135.69,135.69,0,0,1,6.36-16.17,138.24,138.24,0,0,1,10.22-18.11c1.58-2.77,3.41-5.69,5.53-8.7a108.9,108.9,0,0,1,10.78-13A71.71,71.71,0,0,0,242.26,149a70.51,70.51,0,0,0,5.53,30.41A60.94,60.94,0,0,0,266,202.89a73.57,73.57,0,0,1,17.69,9.67,19.93,19.93,0,0,1,9.4,10.78V626.68A253.73,253.73,0,0,1,219,615.21a170.7,170.7,0,0,1-48.79-19.49,111.23,111.23,0,0,1-15.49-7.31,109.73,109.73,0,0,1-18.93-13.7,120.38,120.38,0,0,0,53.36-27.93l7.87-9.26a120.92,120.92,0,0,1-13.4,7.33c-3.79,1.77-7.41,3.22-10.79,4.42a48.53,48.53,0,0,1-10.5,4.15,49.26,49.26,0,0,1-12.58,1.66,48.26,48.26,0,0,1-22.39-1.25,59,59,0,0,1-28.47-13.27,99,99,0,0,1-25.16-23.22c-3.84-3.68-22-26.91-25.3-32.89L32.72,458.32Z"/><polygon class="cls-1" points="255.99 140.37 294.49 140.37 299.91 115.55 302.76 115.55 302.76 189.9 299.91 189.9 294.68 165.75 255.99 165.94 255.99 163.56 283.84 154.06 255.99 142.93 255.99 140.37"/><polygon class="cls-2" points="316.3 0.9 316.09 639.02 418.04 576.18 407.85 559.12 357.7 588.88 340.02 437.82 407.43 399.12 529.56 489.21 480.67 517.72 489.61 535.2 593.43 479.64 589.48 360.63 570.13 360.84 570.55 419.72 431.36 358.14 431.15 282.19 570.55 220.61 570.76 279.49 589.48 279.49 593.43 160.9 488.99 105.14 480.25 123.24 529.98 151.74 408.26 241 340.85 201.88 357.29 51.46 407.22 81 417.63 63.73 316.3 0.9"/></g></g></svg>