<?xml version="1.0" encoding="utf-8"?>
<!-- Generator: Adobe Illustrator 24.1.2, SVG Export Plug-In . SVG Version: 6.00 Build 0)  -->
<svg version="1.1" id="Layer_1" xmlns="http://www.w3.org/2000/svg" xmlns:xlink="http://www.w3.org/1999/xlink" x="0px" y="0px"
	 viewBox="0 0 300 300" style="enable-background:new 0 0 300 300;" xml:space="preserve">
<style type="text/css">
	.st0{fill:#FFFFFF;}
</style>
<g>
	<path class="st0" d="M7.4,146C9.2,99.2,32.9,56,76.3,27.5c0.1,0,1.3-0.4,0.7,0.6c-3.4,3.2-65.2,76.1-8.3,133.7
		c0,0,29.9,28.7,53,1.5c0,0,22.8-29.6-0.3-74.4c0,0-5.9-14.6-27-23.7l17-18.7c0,0,14.4,6.2,25.5,22.9c0,0,0.6-17.6-12.9-36.3
		L150.3,3l26.1,29.6c0,0-12,17-12.9,36.9c0,0,8.2-13.5,25.8-23.2L206,65.1c0,0-16,5.3-26.8,23.5c-9.2,16.9-16.4,53.1,0.4,75.2
		c0,0,18.8,26.6,51.8-1.6c0,0,60.7-54.4-6.2-133c0,0-3.7-3.2,0.4-1.5c29.6,21.5,65,49.9,68.7,120.8c-1.4,86-59,147.3-143.1,147.3
		C68.9,296,4.9,227.3,7.4,146"/>
</g>
</svg>
